<svg xmlns="http://www.w3.org/2000/svg" xmlns:xlink="http://www.w3.org/1999/xlink" width="640" height="640" viewBox="0 0 64 64" fill="#fff">
<g filter="url(#filter0_d_453_6529)">
<path d="M60 9.11182C60 4.0795 55.9868 0 51.0363 0H14.9268C8.89211 0 4 4.97297 4 11.1074V44.8926C4 51.027 8.89211 56 14.9268 56H51.3351C56.1206 56 60 52.0565 60 47.1919V44.8306C60 43.4201 59.3195 42.0993 58.1789 41.2961C57.0383 40.4929 56.3577 39.1721 56.3577 37.7616V18.7012C56.3577 17.2907 57.0383 15.9699 58.1789 15.1667C59.3195 14.3635 60 13.0427 60 11.6323V9.11182Z" fill="#fff" shape-rendering="crispEdges"/>
</g>
<defs>
<filter id="filter0_d_453_6529" x="0" y="0" width="64" height="64" filterUnits="userSpaceOnUse" color-interpolation-filters="sRGB">
<feFlood flood-opacity="0" result="BackgroundImageFix"/>
<feColorMatrix in="SourceAlpha" type="matrix" values="0 0 0 0 0 0 0 0 0 0 0 0 0 0 0 0 0 0 127 0" result="hardAlpha"/>
<feOffset dy="4"/>
<feGaussianBlur stdDeviation="2"/>
<feComposite in2="hardAlpha" operator="out"/>
<feColorMatrix type="matrix" values="0 0 0 0 0 0 0 0 0 0 0 0 0 0 0 0 0 0 0.25 0"/>
<feBlend mode="normal" in2="BackgroundImageFix" result="effect1_dropShadow_453_6529"/>
<feBlend mode="normal" in="SourceGraphic" in2="effect1_dropShadow_453_6529" result="shape"/>
</filter>
<pattern id="pattern0_453_6529" patternContentUnits="objectBoundingBox" width="1" height="1">
<use xlink:href="#image0_453_6529" transform="translate(-0.853025 -0.0312204) scale(0.00168801)"/>
</pattern>
</defs>
</svg>