<svg width="13" height="16" viewBox="0 0 13 16" fill="none" xmlns="http://www.w3.org/2000/svg">
<path d="M6.22222 0C4.05854 0 2.30453 1.73969 2.30453 3.88571C2.30453 6.03173 4.05854 7.77143 6.22222 7.77143C8.3859 7.77143 10.1399 6.03173 10.1399 3.88571C10.1399 1.73969 8.3859 0 6.22222 0Z" fill="white"/>
<path d="M8.53418 9.50014C7.00257 9.2577 5.44187 9.2577 3.91026 9.50014L3.74609 9.52613C1.58798 9.86774 0 11.714 0 13.8816C0 15.0516 0.956233 16 2.1358 16H10.3086C11.4882 16 12.4444 15.0516 12.4444 13.8816C12.4444 11.714 10.8565 9.86774 8.69836 9.52613L8.53418 9.50014Z" fill="white"/>
</svg>
